{
  "accessors": [
    {
      "bufferView": 2,
      "componentType": 5126,
      "count": 1586,
      "max": [
        1.6255999803543091,
        4.4545698165893555,
        1.6857800483703613
      ],
      "min": [
        -1.6255999803543091,
        -4.4545698165893555,
        -1.728350043296814
      ],
      "type": "VEC3"
    },
    {
      "bufferView": 2,
      "byteOffset": 19032,
      "componentType": 5126,
      "count": 1586,
      "max": [
        1,
        1,
        1
      ],
      "min": [
        -1,
        -1,
        -1
      ],
      "type": "VEC3"
    },
    {
      "bufferView": 3,
      "componentType": 5126,
      "count": 1586,
      "max": [
        1,
        1,
        1,
        1
      ],
      "min": [
        -1,
        -1,
        -1,
        1
      ],
      "type": "VEC4"
    },
    {
      "bufferView": 1,
      "componentType": 5126,
      "count": 1586,
      "max": [
        0.97864001989364624,
        0.9981200098991394
      ],
      "min": [
        0.001879999996162951,
        0.001879999996162951
      ],
      "type": "VEC2"
    },
    {
      "bufferView": 0,
      "componentType": 5125,
      "count": 2970,
      "max": [
        1585
      ],
      "min": [
        0
      ],
      "type": "SCALAR"
    },
    {
      "bufferView": 2,
      "byteOffset": 38064,
      "componentType": 5126,
      "count": 4064,
      "max": [
        0.74296998977661133,
        0.085709996521472931,
        3.1605799198150635
      ],
      "min": [
        -0.74296998977661133,
        -0.028100000694394112,
        -0.025100000202655792
      ],
      "type": "VEC3"
    },
    {
      "bufferView": 2,
      "byteOffset": 86832,
      "componentType": 5126,
      "count": 4064,
      "max": [
        1,
        1,
        1
      ],
      "min": [
        -1,
        -1,
        -1
      ],
      "type": "VEC3"
    },
    {
      "bufferView": 3,
      "byteOffset": 25376,
      "componentType": 5126,
      "count": 4064,
      "max": [
        1,
        1,
        1,
        1
      ],
      "min": [
        -1,
        -1,
        -1,
        -1
      ],
      "type": "VEC4"
    },
    {
      "bufferView": 1,
      "byteOffset": 12688,
      "componentType": 5126,
      "count": 4064,
      "max": [
        0.98697000741958618,
        0.98906999826431274
      ],
      "min": [
        0.010459999553859234,
        0.00011999999696854502
      ],
      "type": "VEC2"
    },
    {
      "bufferView": 0,
      "byteOffset": 11880,
      "componentType": 5125,
      "count": 7764,
      "max": [
        4063
      ],
      "min": [
        0
      ],
      "type": "SCALAR"
    },
    {
      "bufferView": 2,
      "byteOffset": 135600,
      "componentType": 5126,
      "count": 127,
      "max": [
        -1.4666399955749512,
        -0.0012499999720603228,
        1.4639400243759155
      ],
      "min": [
        -1.5425699949264526,
        -1.7301700115203857,
        -1.5028599500656128
      ],
      "type": "VEC3"
    },
    {
      "bufferView": 2,
      "byteOffset": 137124,
      "componentType": 5126,
      "count": 127,
      "max": [
        1,
        1,
        1
      ],
      "min": [
        -1,
        -1,
        -1
      ],
      "type": "VEC3"
    },
    {
      "bufferView": 3,
      "byteOffset": 90400,
      "componentType": 5126,
      "count": 127,
      "max": [
        1,
        1,
        0.01812615804374218,
        1
      ],
      "min": [
        -1,
        -1,
        -0.99996352195739746,
        1
      ],
      "type": "VEC4"
    },
    {
      "bufferView": 1,
      "byteOffset": 45200,
      "componentType": 5126,
      "count": 127,
      "max": [
        0.99010002613067627,
        0.98572999238967896
      ],
      "min": [
        0.31259998679161072,
        0.26688998937606812
      ],
      "type": "VEC2"
    },
    {
      "bufferView": 0,
      "byteOffset": 42936,
      "componentType": 5125,
      "count": 195,
      "max": [
        126
      ],
      "min": [
        0
      ],
      "type": "SCALAR"
    },
    {
      "bufferView": 2,
      "byteOffset": 138648,
      "componentType": 5126,
      "count": 127,
      "max": [
        -1.4666399955749512,
        -0.0012499999720603228,
        1.4639400243759155
      ],
      "min": [
        -1.5425699949264526,
        -1.7301700115203857,
        -1.5028599500656128
      ],
      "type": "VEC3"
    },
    {
      "bufferView": 2,
      "byteOffset": 140172,
      "componentType": 5126,
      "count": 127,
      "max": [
        1,
        1,
        1
      ],
      "min": [
        -1,
        -1,
        -1
      ],
      "type": "VEC3"
    },
    {
      "bufferView": 3,
      "byteOffset": 92432,
      "componentType": 5126,
      "count": 127,
      "max": [
        1,
        1,
        1,
        1
      ],
      "min": [
        -1,
        -0.99995869398117065,
        -0.43934452533721924,
        1
      ],
      "type": "VEC4"
    },
    {
      "bufferView": 1,
      "byteOffset": 46216,
      "componentType": 5126,
      "count": 127,
      "max": [
        0.98710000514984131,
        0.98839002847671509
      ],
      "min": [
        0.18328000605106354,
        0.26886999607086182
      ],
      "type": "VEC2"
    },
    {
      "bufferView": 0,
      "byteOffset": 43716,
      "componentType": 5125,
      "count": 195,
      "max": [
        126
      ],
      "min": [
        0
      ],
      "type": "SCALAR"
    },
    {
      "bufferView": 2,
      "byteOffset": 141696,
      "componentType": 5126,
      "count": 127,
      "max": [
        -1.4666399955749512,
        -0.0012499999720603228,
        1.4639400243759155
      ],
      "min": [
        -1.5425699949264526,
        -1.7301700115203857,
        -1.5028599500656128
      ],
      "type": "VEC3"
    },
    {
      "bufferView": 2,
      "byteOffset": 143220,
      "componentType": 5126,
      "count": 127,
      "max": [
        1,
        1,
        1
      ],
      "min": [
        -1,
        -1,
        -1
      ],
      "type": "VEC3"
    },
    {
      "bufferView": 3,
      "byteOffset": 94464,
      "componentType": 5126,
      "count": 127,
      "max": [
        1,
        1,
        0.9999624490737915,
        1
      ],
      "min": [
        -1,
        -0.99995863437652588,
        -0.43934446573257446,
        1
      ],
      "type": "VEC4"
    },
    {
      "bufferView": 1,
      "byteOffset": 47232,
      "componentType": 5126,
      "count": 127,
      "max": [
        0.98940998315811157,
        0.98995000123977661
      ],
      "min": [
        0.18328000605106354,
        0.014510000124573708
      ],
      "type": "VEC2"
    },
    {
      "bufferView": 0,
      "byteOffset": 44496,
      "componentType": 5125,
      "count": 195,
      "max": [
        126
      ],
      "min": [
        0
      ],
      "type": "SCALAR"
    },
    {
      "bufferView": 2,
      "byteOffset": 144744,
      "componentType": 5126,
      "count": 127,
      "max": [
        -1.4666399955749512,
        -0.0012499999720603228,
        1.4639400243759155
      ],
      "min": [
        -1.5425699949264526,
        -1.7301700115203857,
        -1.5028599500656128
      ],
      "type": "VEC3"
    },
    {
      "bufferView": 2,
      "byteOffset": 146268,
      "componentType": 5126,
      "count": 127,
      "max": [
        1,
        1,
        1
      ],
      "min": [
        -1,
        -1,
        -1
      ],
      "type": "VEC3"
    },
    {
      "bufferView": 3,
      "byteOffset": 96496,
      "componentType": 5126,
      "count": 127,
      "max": [
        1,
        1,
        0.0181280467659235,
        1
      ],
      "min": [
        -1,
        -1,
        -1,
        1
      ],
      "type": "VEC4"
    },
    {
      "bufferView": 1,
      "byteOffset": 48248,
      "componentType": 5126,
      "count": 127,
      "max": [
        0.99102002382278442,
        0.99190002679824829
      ],
      "min": [
        0.31352001428604126,
        0.012520000338554382
      ],
      "type": "VEC2"
    },
    {
      "bufferView": 0,
      "byteOffset": 45276,
      "componentType": 5125,
      "count": 195,
      "max": [
        126
      ],
      "min": [
        0
      ],
      "type": "SCALAR"
    }
  ],
  "asset": {
    "extras": {
      "author": "Sahir Virmani (https://sketchfab.com/sahirvirmani)",
      "license": "CC-BY-4.0 (http://creativecommons.org/licenses/by/4.0/)",
      "source": "https://sketchfab.com/3d-models/post-apocalyptic-shipping-container-fa3e0b6d1b5d4756827ef06fd2c8516d",
      "title": "Post Apocalyptic Shipping Container"
    },
    "generator": "Sketchfab-4.81.0",
    "version": "2.0"
  },
  "bufferViews": [
    {
      "buffer": 0,
      "byteLength": 46056,
      "byteOffset": 0,
      "name": "floatBufferViews",
      "target": 34963
    },
    {
      "buffer": 0,
      "byteLength": 49264,
      "byteOffset": 46056,
      "byteStride": 8,
      "name": "floatBufferViews",
      "target": 34962
    },
    {
      "buffer": 0,
      "byteLength": 147792,
      "byteOffset": 95320,
      "byteStride": 12,
      "name": "floatBufferViews",
      "target": 34962
    },
    {
      "buffer": 0,
      "byteLength": 98528,
      "byteOffset": 243112,
      "byteStride": 16,
      "name": "floatBufferViews",
      "target": 34962
    }
  ],
  "buffers": [
    {
      "byteLength": 341640,
      "uri": "scene.bin"
    }
  ],
  "images": [
    {
      "uri": "textures/Root_metallicRoughness.png"
    },
    {
      "uri": "textures/Root_normal.png"
    },
    {
      "uri": "textures/Root_baseColor.png"
    },
    {
      "uri": "textures/Material_metallicRoughness.png"
    },
    {
      "uri": "textures/Material_normal.png"
    },
    {
      "uri": "textures/Material_baseColor.png"
    },
    {
      "uri": "textures/mat_ao_metallicRoughness.png"
    },
    {
      "uri": "textures/mat_ao_normal.png"
    },
    {
      "uri": "textures/mat_ao_baseColor.png"
    }
  ],
  "materials": [
    {
      "doubleSided": true,
      "name": "Root",
      "normalTexture": {
        "index": 1,
        "scale": 1,
        "texCoord": 0
      },
      "pbrMetallicRoughness": {
        "baseColorFactor": [
          1,
          1,
          1,
          1
        ],
        "baseColorTexture": {
          "index": 2,
          "texCoord": 0
        },
        "metallicFactor": 1,
        "metallicRoughnessTexture": {
          "index": 0,
          "texCoord": 0
        },
        "roughnessFactor": 1
      }
    },
    {
      "doubleSided": true,
      "name": "mat_ao",
      "normalTexture": {
        "index": 7,
        "scale": 1,
        "texCoord": 0
      },
      "pbrMetallicRoughness": {
        "baseColorFactor": [
          1,
          1,
          1,
          1
        ],
        "baseColorTexture": {
          "index": 8,
          "texCoord": 0
        },
        "metallicFactor": 1,
        "metallicRoughnessTexture": {
          "index": 6,
          "texCoord": 0
        },
        "roughnessFactor": 1
      }
    },
    {
      "doubleSided": true,
      "name": "Material",
      "normalTexture": {
        "index": 4,
        "scale": 1,
        "texCoord": 0
      },
      "pbrMetallicRoughness": {
        "baseColorFactor": [
          1,
          1,
          1,
          1
        ],
        "baseColorTexture": {
          "index": 5,
          "texCoord": 0
        },
        "metallicFactor": 1,
        "metallicRoughnessTexture": {
          "index": 3,
          "texCoord": 0
        },
        "roughnessFactor": 1
      }
    }
  ],
  "meshes": [
    {
      "name": "Cube_0",
      "primitives": [
        {
          "attributes": {
            "NORMAL": 1,
            "POSITION": 0,
            "TANGENT": 2,
            "TEXCOORD_0": 3
          },
          "indices": 4,
          "material": 2,
          "mode": 4
        }
      ]
    },
    {
      "name": "Cylinder.000_0",
      "primitives": [
        {
          "attributes": {
            "NORMAL": 6,
            "POSITION": 5,
            "TANGENT": 7,
            "TEXCOORD_0": 8
          },
          "indices": 9,
          "material": 0,
          "mode": 4
        }
      ]
    },
    {
      "name": "Cube.003_0",
      "primitives": [
        {
          "attributes": {
            "NORMAL": 11,
            "POSITION": 10,
            "TANGENT": 12,
            "TEXCOORD_0": 13
          },
          "indices": 14,
          "material": 1,
          "mode": 4
        }
      ]
    },
    {
      "name": "Cube.004_0",
      "primitives": [
        {
          "attributes": {
            "NORMAL": 16,
            "POSITION": 15,
            "TANGENT": 17,
            "TEXCOORD_0": 18
          },
          "indices": 19,
          "material": 1,
          "mode": 4
        }
      ]
    },
    {
      "name": "Cube.001_0",
      "primitives": [
        {
          "attributes": {
            "NORMAL": 21,
            "POSITION": 20,
            "TANGENT": 22,
            "TEXCOORD_0": 23
          },
          "indices": 24,
          "material": 1,
          "mode": 4
        }
      ]
    },
    {
      "name": "Cube.002_0",
      "primitives": [
        {
          "attributes": {
            "NORMAL": 26,
            "POSITION": 25,
            "TANGENT": 27,
            "TEXCOORD_0": 28
          },
          "indices": 29,
          "material": 1,
          "mode": 4
        }
      ]
    }
  ],
  "nodes": [
    {
      "children": [
        1
      ],
      "name": "RootNode (gltf orientation matrix)",
      "rotation": [
        -0.70710678118654746,
        -0,
        -0,
        0.70710678118654757
      ]
    },
    {
      "children": [
        2
      ],
      "name": "RootNode (model correction matrix)"
    },
    {
      "children": [
        3,
        5,
        7,
        9,
        11,
        13,
        15,
        17
      ],
      "name": "Root"
    },
    {
      "children": [
        4
      ],
      "matrix": [
        0.65565000000000018,
        0.75304000000000015,
        -0.05519000000000001,
        0,
        -0.57830999999999999,
        0.54782000000000008,
        0.60452000000000006,
        0,
        0.48547000000000007,
        -0.36444000000000004,
        0.7946700000000001,
        0,
        3.7797000000000001,
        5.7860900000000006,
        2.8807999999999998,
        1
      ],
      "name": "Lamp"
    },
    {
      "name": "Lamp"
    },
    {
      "children": [
        6
      ],
      "name": "Cube"
    },
    {
      "mesh": 0,
      "name": "Cube_0"
    },
    {
      "children": [
        8
      ],
      "matrix": [
        1,
        0,
        0,
        0,
        0,
        1,
        0,
        0,
        0,
        0,
        1,
        0,
        -0.0015900000000000005,
        -4.4371799999999997,
        -1.58165,
        1
      ],
      "name": "Cylinder.000"
    },
    {
      "mesh": 1,
      "name": "Cylinder.000_0"
    },
    {
      "children": [
        10
      ],
      "matrix": [
        0.65565000000000018,
        0.75304000000000015,
        -0.05519000000000001,
        0,
        -0.57830999999999999,
        0.54782000000000008,
        0.60452000000000006,
        0,
        0.48547000000000007,
        -0.36444000000000004,
        0.7946700000000001,
        0,
        -3.9196299999999997,
        -6.8200899999999995,
        3.3277800000000002,
        1
      ],
      "name": "Lamp.001"
    },
    {
      "name": "Lamp.001"
    },
    {
      "children": [
        12
      ],
      "matrix": [
        -1,
        -0,
        0,
        0,
        0,
        -1,
        0,
        0,
        0,
        0,
        1,
        0,
        0,
        0,
        0,
        1
      ],
      "name": "Cube.003"
    },
    {
      "mesh": 2,
      "name": "Cube.003_0"
    },
    {
      "children": [
        14
      ],
      "matrix": [
        -1,
        0,
        -0,
        0,
        0,
        1,
        0,
        0,
        0,
        -0,
        -1,
        0,
        0,
        0,
        -0.038440000000000002,
        1
      ],
      "name": "Cube.004"
    },
    {
      "mesh": 3,
      "name": "Cube.004_0"
    },
    {
      "children": [
        16
      ],
      "matrix": [
        1,
        0,
        0,
        0,
        -0,
        1,
        -0,
        0,
        -0,
        -0,
        1,
        0,
        0,
        0,
        0.0020500000000000006,
        1
      ],
      "name": "Cube.001"
    },
    {
      "mesh": 4,
      "name": "Cube.001_0"
    },
    {
      "children": [
        18
      ],
      "matrix": [
        1,
        -0,
        -0,
        0,
        -0,
        -1,
        0,
        0,
        -0,
        0,
        -1,
        0,
        0,
        0,
        -0.036020000000000003,
        1
      ],
      "name": "Cube.002"
    },
    {
      "mesh": 5,
      "name": "Cube.002_0"
    }
  ],
  "samplers": [
    {
      "magFilter": 9729,
      "minFilter": 9987,
      "wrapS": 10497,
      "wrapT": 10497
    }
  ],
  "scene": 0,
  "scenes": [
    {
      "name": "OSG_Scene",
      "nodes": [
        0
      ]
    }
  ],
  "textures": [
    {
      "sampler": 0,
      "source": 0
    },
    {
      "sampler": 0,
      "source": 1
    },
    {
      "sampler": 0,
      "source": 2
    },
    {
      "sampler": 0,
      "source": 3
    },
    {
      "sampler": 0,
      "source": 4
    },
    {
      "sampler": 0,
      "source": 5
    },
    {
      "sampler": 0,
      "source": 6
    },
    {
      "sampler": 0,
      "source": 7
    },
    {
      "sampler": 0,
      "source": 8
    }
  ]
}

